PathFileType	4	(X/Y/Z)	C:\Users\Basilio\Documents\Thesis Gigler\squatting_fais\c3dfiles\076\SJ_pre2\markers_experimental.trc
DataRate	CameraRate	NumFrames	NumMarkers	Units	OrigDataRate	OrigDataStartFrame	OrigNumFrames
200.000000	200.000000	4	61	mm	200.000000	0	1456
Frame#	Time	FHD			LBHD			RBHD			C7			T10			CLAV			LSHO			LUUPA			LMUPA			LDUPA			LLEP			LMEP			LRAD			LUL			LRFIN			RSHO			RUPA1			RMUPA			RDUPA			RLEP			RMEP			RRAD			RUL			RUFIN			LASI			RASI			USACR			LSACR			RSACR			LTHI1			LTHI2			LTHI3			LTHI4			LLFC			LMFC			LTIB1			LTIB2			LTIB3			LTIB4			LLMAL			LMMAL			LHEE			LMT1			LMT2			LMT5			RTHI			RTHI2			RTHI3			RTHI4			RLFC			RMFC			RTIB1			RTIB2			RTIB3			RTIB4			RLMAL			RMMAL			RHEE			RMT1			RMT2			RMT5			
		X1	Y1	Z1	X2	Y2	Z2	X3	Y3	Z3	X4	Y4	Z4	X5	Y5	Z5	X6	Y6	Z6	X7	Y7	Z7	X8	Y8	Z8	X9	Y9	Z9	X10	Y10	Z10	X11	Y11	Z11	X12	Y12	Z12	X13	Y13	Z13	X14	Y14	Z14	X15	Y15	Z15	X16	Y16	Z16	X17	Y17	Z17	X18	Y18	Z18	X19	Y19	Z19	X20	Y20	Z20	X21	Y21	Z21	X22	Y22	Z22	X23	Y23	Z23	X24	Y24	Z24	X25	Y25	Z25	X26	Y26	Z26	X27	Y27	Z27	X28	Y28	Z28	X29	Y29	Z29	X30	Y30	Z30	X31	Y31	Z31	X32	Y32	Z32	X33	Y33	Z33	X34	Y34	Z34	X35	Y35	Z35	X36	Y36	Z36	X37	Y37	Z37	X38	Y38	Z38	X39	Y39	Z39	X40	Y40	Z40	X41	Y41	Z41	X42	Y42	Z42	X43	Y43	Z43	X44	Y44	Z44	X45	Y45	Z45	X46	Y46	Z46	X47	Y47	Z47	X48	Y48	Z48	X49	Y49	Z49	X50	Y50	Z50	X51	Y51	Z51	X52	Y52	Z52	X53	Y53	Z53	X54	Y54	Z54	X55	Y55	Z55	X56	Y56	Z56	X57	Y57	Z57	X58	Y58	Z58	X59	Y59	Z59	X60	Y60	Z60	X61	Y61	Z61	

1	0	-103.1062698364258	1486.978881835938	-967.365661621094	-253.0874786376954	1519.773803710938	-1069.289428710938	-239.3574981689454	1532.62158203125	-917.2243652343752	-375.1532897949219	1431.72802734375	-987.2767333984377	-447.7113342285157	1105.010131835938	-983.6209106445315	-265.9216003417969	1320.526000976563	-976.8913574218752	-324.0286560058594	1352.79833984375	-1153.668334960938	-349.7632141113282	1195.827514648438	-1277.7421875	-337.4311828613282	1151.557861328125	-1257.502807617188	-361.3177185058594	1136.935791015625	-1312.116821289063	-375.7948913574219	1088.030639648438	-1338.675048828125	-456.160858154297	1080.80322265625	-1301.648681640625	-330.7171020507813	933.810729980469	-1146.48095703125	-378.6137390136719	915.3047485351565	-1169.254150390625	-335.6329956054688	883.0360107421877	-1204.939331054688	-341.5401000976563	1360.531494140625	-817.2246093750002	-415.9076232910157	1226.706176757813	-685.3632202148439	-386.1197204589845	1186.15087890625	-682.7814941406251	-432.1677551269532	1168.322265625	-647.8247070312501	-433.3552551269532	1099.168579101563	-625.2813720703126	-499.032196044922	1088.184448242188	-683.2431640625001	-408.5793457031251	920.3118896484377	-785.806091308594	-353.7728881835938	932.6423339843752	-795.0408325195315	-368.7889099121094	892.0117797851565	-737.9973144531251	-279.6551818847657	912.8927001953127	-1077.55859375	-293.1824645996094	909.4794921875002	-864.7374267578127	-450.5712890625001	994.119567871094	-979.5402832031252	-457.523406982422	966.425964355469	-1008.781494140625	-459.5963439941407	964.2459716796877	-952.052673339844	-362.8743896484376	771.237243652344	-1150.452392578125	-340.3373718261719	689.3076171875001	-1150.665649414063	-292.6203308105469	687.1464233398439	-1135.68994140625	-374.9047241210938	639.1972045898439	-1142.442260742188	-385.7015075683595	477.463592529297	-1126.13037109375	-365.6135864257813	464.4311523437501	-1009.555358886719	-357.7753295898438	329.7141113281251	-1062.639282226563	-373.1163635253907	279.2338256835938	-1134.750122070313	-347.9500122070313	281.2481994628907	-1095.589111328125	-361.9882507324219	201.8666534423829	-1069.1630859375	-407.5962524414064	78.51842498779298	-1134.107543945313	-387.4642944335939	86.98540496826173	-1050.931518554688	-463.1536560058595	42.14447402954102	-1093.428955078125	-253.4528961181641	53.17281723022462	-1066.472534179688	-246.2831726074219	54.14212799072267	-1104.67236328125	-262.0964660644532	43.46052169799805	-1156.292846679688	-401.2961425781251	677.7952270507814	-789.4586181640627	-367.0465393066407	622.6275634765626	-769.8184204101565	-331.8001403808594	624.2207031250001	-771.3264770507815	-390.9975891113282	544.5453491210939	-783.662536621094	-386.9959716796876	484.0073547363282	-778.1632080078127	-334.0166931152344	463.119110107422	-881.5252685546877	-343.3055725097657	349.3508605957032	-769.649353027344	-418.0581054687501	273.0744628906251	-746.3297119140626	-371.2973327636719	269.2365722656251	-748.4468383789064	-351.6184387207032	219.7188415527344	-770.8233032226565	-412.2153930664064	80.21894836425783	-730.2724609375001	-384.3920898437501	89.04450988769533	-810.9665527343752	-463.1407470703126	49.54093170166017	-776.143737792969	-255.2971496582032	53.86902999877931	-782.0850219726565	-253.9694061279297	56.28425216674806	-736.6281127929689	-281.8710021972657	34.63446426391602	-684.3250122070314	
2	0.005	-103.2757034301758	1487.274291992188	-966.164001464844	-253.3361358642579	1519.886352539063	-1068.381591796875	-239.7069549560547	1532.729125976563	-916.2770996093752	-375.1726684570313	1431.385375976563	-986.6290283203127	-447.6910095214845	1105.022827148438	-983.0335693359377	-266.1223144531251	1320.618774414063	-976.0737915039065	-323.9393005371094	1352.862182617188	-1152.8994140625	-349.6245422363282	1195.890258789063	-1277.004028320313	-337.1725769042969	1151.67529296875	-1256.757080078125	-361.1204528808594	1137.034545898438	-1311.327514648438	-375.6433105468751	1088.088745117188	-1337.973388671875	-456.0488586425782	1080.7158203125	-1301.058715820313	-330.5137023925782	933.862731933594	-1145.789672851563	-378.3712768554688	915.3519287109377	-1168.536499023438	-335.3265380859376	883.0686645507815	-1204.159057617188	-341.8606872558594	1360.65234375	-816.4501953125002	-416.3213195800782	1226.840209960938	-684.6209716796876	-386.517547607422	1186.332641601563	-681.9771118164064	-432.6369934082032	1168.507446289063	-647.0506591796876	-433.7547912597657	1099.365844726563	-624.4995727539064	-499.354217529297	1088.327270507813	-682.5626220703126	-408.5945434570314	920.5072021484377	-785.0294189453127	-353.8880310058594	932.8784179687502	-794.3440551757815	-368.9542236328126	892.2561035156252	-737.2335815429689	-279.5374145507813	912.8770751953127	-1076.750610351563	-293.2878417968751	909.669616699219	-864.0579833984377	-450.494110107422	994.0930786132815	-979.093444824219	-457.4475097656251	966.3929443359377	-1008.27392578125	-459.5640258789064	964.2945556640627	-951.4705200195315	-362.7619628906251	771.2431640625002	-1149.765991210938	-340.2053833007813	689.2860107421876	-1150.013061523438	-292.4263610839844	687.1915893554689	-1134.998901367188	-374.7680969238282	639.2753295898439	-1141.879760742188	-385.5139770507814	477.4852905273439	-1125.63037109375	-365.6178588867188	464.3705444335939	-1009.082824707031	-357.6853332519532	329.6489562988282	-1062.330200195313	-373.1146545410157	279.2966308593751	-1134.430419921875	-347.8201904296876	281.2358703613282	-1095.259887695313	-361.0879516601563	202.6181793212891	-1068.97412109375	-407.5597229003907	78.62528228759767	-1134.0859375	-387.4138488769532	86.93947601318361	-1050.83203125	-463.1723632812501	42.16644668579102	-1093.361572265625	-253.4756774902344	53.22595596313478	-1066.463256835938	-246.2634277343751	54.19110107421876	-1104.6689453125	-262.1437988281251	43.4865837097168	-1156.295654296875	-401.3882446289064	677.9332885742189	-788.7691040039065	-367.2039184570313	622.6351318359376	-769.295593261719	-332.0051574707032	624.1737060546876	-770.9460449218752	-391.3566284179689	544.6574096679689	-783.173522949219	-387.5325622558595	484.0348205566407	-777.903015136719	-334.7400512695313	463.1554565429689	-881.1866455078127	-343.9089355468751	349.4508666992188	-769.426940917969	-418.4500427246095	272.9496154785157	-746.1380004882814	-371.6577148437501	269.2528991699219	-748.2774047851564	-351.9267578125001	219.7417907714844	-770.6853637695315	-412.2397460937501	80.18862152099611	-730.2212524414064	-384.3910217285157	89.05586242675783	-810.9541015625002	-463.181610107422	49.52393722534181	-776.0854492187502	-255.3025207519532	53.82540512084962	-782.0595703125002	-253.9644470214844	56.29544067382814	-736.5281982421876	-281.8410339355469	34.59917068481446	-684.2430419921876	
3	0.01	-103.4559783935547	1487.549194335938	-965.0864868164065	-253.4746856689454	1520.001586914063	-1067.3134765625	-240.0452728271485	1532.840087890625	-915.293884277344	-375.2740478515626	1431.3935546875	-985.8381347656252	-447.6858825683595	1105.00732421875	-982.5320434570315	-266.2933349609376	1320.767456054688	-975.232604980469	-323.9000244140626	1352.940551757813	-1152.164184570313	-349.4561767578126	1195.927856445313	-1276.087524414063	-337.0910034179688	1151.740600585938	-1256.057739257813	-361.0268249511719	1137.101196289063	-1310.561157226563	-375.4953002929688	1088.085693359375	-1337.174560546875	-455.7479553222657	1080.67578125	-1300.12451171875	-330.2818298339844	933.8853149414065	-1145.018432617188	-378.3294677734376	915.3764648437502	-1167.739868164063	-335.0298156738282	883.1151123046877	-1203.356201171875	-342.2745361328126	1360.809204101563	-815.7114868164065	-416.7353515625001	1227.044555664063	-683.8218994140626	-386.9077758789064	1186.477294921875	-681.1570434570314	-433.0484008789064	1168.644775390625	-646.3245239257814	-434.1679687500001	1099.549926757813	-623.7351074218751	-499.7551574707032	1088.386474609375	-681.9453125000001	-408.6499633789064	920.7635498046877	-784.1738891601565	-353.9484252929688	933.1142578125002	-793.5794067382815	-369.0391845703126	892.5458984375002	-736.5417480468751	-279.4069213867188	912.8607177734377	-1076.045654296875	-293.3420410156251	909.8671875000002	-863.4123535156252	-450.4549865722657	994.1098632812502	-978.4930419921877	-457.3582763671876	966.3806762695315	-1007.623107910156	-459.6092834472657	964.3105468750002	-950.8504638671877	-362.7051086425782	771.2532348632815	-1149.216186523438	-340.0467224121094	689.3005371093751	-1149.394897460938	-292.3069152832032	687.3556518554689	-1133.713012695313	-374.6652832031251	639.2731933593751	-1141.269897460938	-385.4072875976564	477.5513610839845	-1125.195922851563	-365.4655151367188	464.2728576660157	-1008.576965332031	-358.7458496093751	328.7579650878907	-1062.590209960938	-373.0993652343751	279.3200378417969	-1134.102416992188	-347.7846374511719	281.2450561523438	-1095.00634765625	-361.0529479980469	202.598617553711	-1068.822875976563	-407.5477905273439	78.63645172119142	-1134.016235351563	-387.3897399902345	86.91240692138673	-1050.786376953125	-463.109100341797	42.15763473510743	-1093.36181640625	-253.468002319336	53.20770645141603	-1066.443115234375	-246.2435607910157	54.19707489013673	-1104.66552734375	-262.0955200195313	43.48082351684571	-1156.267333984375	-401.3773803710939	678.0598144531251	-788.1062011718752	-367.3102111816407	622.6511840820314	-768.8936157226565	-332.1673278808594	624.1348876953126	-770.507263183594	-391.7423400878907	544.8184204101564	-782.3120117187502	-388.0357971191407	484.0177612304689	-777.576843261719	-335.3708801269532	463.1238098144532	-880.9018554687502	-344.3778686523438	349.4998779296876	-769.3112792968752	-418.7517700195314	272.8789672851563	-746.0187377929689	-371.9533691406251	269.2607116699219	-748.1049194335939	-352.1381225585938	219.776596069336	-770.5517578125002	-412.2922668457032	80.14907836914064	-730.1715698242189	-384.4670715332032	89.05496215820314	-810.8876953125002	-463.175506591797	49.53398895263673	-776.0247802734377	-255.3183898925782	53.8729705810547	-781.9588012695315	-253.9595947265626	56.27678298950197	-736.5294189453126	-281.8734130859376	34.5327262878418	-684.1604003906251	
4	0.015	-103.6716232299805	1487.841674804688	-964.0471801757815	-253.3963012695313	1520.084228515625	-1066.48388671875	-240.425033569336	1532.820190429688	-914.8332519531252	-375.6490478515626	1431.81982421875	-985.0618286132815	-447.6848754882814	1105.042358398438	-982.0040283203127	-266.3858947753907	1320.903198242188	-974.3308105468752	-323.8535156250001	1353.032348632813	-1151.371826171875	-349.3337097167969	1196.027221679688	-1275.344848632813	-336.9553833007813	1151.825317382813	-1255.14453125	-361.2864379882813	1136.9228515625	-1308.796142578125	-375.2056579589844	1088.140014648438	-1336.29150390625	-455.510467529297	1080.795776367188	-1299.327026367188	-330.2033691406251	933.8430786132815	-1144.073120117188	-378.1283264160157	915.3901367187502	-1166.98193359375	-334.8167114257813	883.1287841796877	-1202.579223632813	-342.6266479492188	1360.937622070313	-814.8833007812502	-417.0928649902345	1227.1845703125	-683.0819091796876	-387.3097534179689	1186.644409179688	-680.3203125000001	-433.4818115234376	1168.795166015625	-645.5836791992189	-434.6465454101564	1099.700439453125	-622.9442138671876	-500.1843872070314	1088.529663085938	-681.1939086914064	-408.5749511718751	920.9807739257815	-783.4119873046877	-353.9429016113282	933.3605957031252	-792.740661621094	-369.0789184570313	892.8052368164065	-735.7949218750001	-279.2990112304688	912.902282714844	-1075.256469726563	-293.2799377441407	910.1070556640627	-862.494079589844	-450.3530578613282	994.1528930664065	-977.7246093750002	-457.261444091797	966.3825683593752	-1006.896362304688	-459.5419311523439	964.355895996094	-950.2095947265627	-362.6686706542969	771.3252563476565	-1148.570434570313	-339.9559020996094	689.3339843750001	-1148.707763671875	-292.2062683105469	687.3060913085939	-1133.149047851563	-374.6160888671876	639.2705688476564	-1140.61376953125	-385.3432006835939	477.5610656738282	-1124.640625	-365.2361450195313	464.2082824707032	-1008.029235839844	-358.6016235351563	328.7554016113282	-1062.195068359375	-373.0763549804688	279.3557434082032	-1133.767822265625	-347.7072753906251	281.2720031738282	-1094.8076171875	-360.6746520996094	202.275619506836	-1068.539428710938	-407.5179748535157	78.7021942138672	-1133.936767578125	-387.3756713867189	86.90932464599611	-1050.704833984375	-463.1100463867189	42.15919876098634	-1093.35205078125	-253.4433135986329	53.19721984863283	-1066.420654296875	-246.2712707519532	54.16452407836915	-1104.663208007813	-262.1378784179688	43.51837921142579	-1156.268676757813	-401.3318176269532	678.1118164062501	-787.5582275390627	-367.4278869628907	622.6236572265626	-768.418884277344	-332.2799987792969	624.0568847656251	-770.145202636719	-392.0101013183595	544.8836059570314	-781.8232421875002	-388.4823608398439	483.9813537597657	-777.3084716796877	-336.7842407226563	463.4993896484376	-880.809509277344	-344.7955627441407	349.5667419433594	-769.1896972656252	-419.0161132812501	272.8175048828126	-745.8507080078126	-372.2192077636719	269.1997985839844	-748.0575561523439	-352.3594055175782	219.7744293212891	-770.4871215820315	-412.2835998535157	80.10948181152345	-730.1470947265626	-384.4612121582032	89.05700683593751	-810.8936157226565	-463.191131591797	49.5533790588379	-776.0037231445315	-255.3474426269532	53.83937454223634	-781.942565917969	-254.1931915283204	56.34678649902345	-736.4674072265626	-281.9056701660157	34.31516647338868	-684.2471923828126	
